<?xml version="1.0" encoding="utf-8"?>
<svg version="1.1" viewBox="0 0 39 30" xmlns="http://www.w3.org/2000/svg" xmlns:xlink="http://www.w3.org/1999/xlink">
<g>
	<path fill="#FFFFFF" d="M38.995,15c0,1.657-1.343,3-3,3H3c-1.657,0-3-1.343-3-3l0,0c0-1.657,1.343-3,3-3h32.996
		C37.652,12,38.995,13.343,38.995,15L38.995,15z"/>
	<path fill="#FFFFFF" d="M38.995,3c0,1.657-1.343,3-3,3H3c-1.657,0-3-1.343-3-3l0,0c0-1.657,1.343-3,3-3h32.996
		C37.652,0,38.995,1.343,38.995,3L38.995,3z"/>
	<path fill="#FFFFFF" d="M38.995,26.937c0,1.657-1.343,3-3,3H3c-1.657,0-3-1.343-3-3l0,0c0-1.657,1.343-3,3-3h32.996
		C37.652,23.938,38.995,25.28,38.995,26.937L38.995,26.937z"/>
</g>
</svg>
